<?xml version="1.0" standalone="no"?>
<!DOCTYPE svg PUBLIC "-//W3C//DTD SVG 20010904//EN"
 "http://www.w3.org/TR/2001/REC-SVG-20010904/DTD/svg10.dtd">
<svg version="1.0" xmlns="http://www.w3.org/2000/svg"
 width="512.000000pt" height="512.000000pt" viewBox="0 0 512.000000 512.000000"
 preserveAspectRatio="xMidYMid meet">
<metadata>
Created by potrace 1.14, written by Peter Selinger 2001-2017
</metadata>
<g transform="translate(0.000000,512.000000) scale(0.100000,-0.100000)"
fill="#000000" stroke="none">
<path d="M2409 4475 c-2 -1 -38 -6 -79 -9 -184 -14 -437 -87 -640 -183 -447
-211 -807 -596 -983 -1048 -37 -96 -83 -254 -92 -320 -3 -22 -8 -47 -11 -54
-18 -53 -26 -381 -12 -511 33 -326 177 -675 391 -950 118 -151 337 -349 500
-450 228 -143 516 -250 760 -285 27 -3 59 -9 70 -12 12 -2 105 -6 207 -8 215
-3 321 7 490 46 128 30 250 67 264 80 6 5 17 9 25 10 9 0 56 19 105 43 l90 42
60 -36 c79 -47 134 -72 228 -104 100 -33 152 -41 278 -40 85 1 121 6 187 28
45 15 84 30 87 34 2 4 -23 37 -57 73 -34 36 -99 106 -145 156 -46 51 -107 118
-137 149 l-54 58 77 81 c216 225 365 488 455 805 14 47 28 105 32 130 4 25 9
56 11 70 25 137 24 518 -1 592 -2 7 -7 31 -10 53 -28 191 -147 481 -279 680
-250 375 -626 656 -1056 790 -77 24 -149 44 -185 51 -46 9 -133 24 -170 29
-45 7 -401 16 -406 10z"/>
</g>
</svg>
